<?xml version="1.0" encoding="UTF-8"?><svg xmlns="http://www.w3.org/2000/svg" xmlns:xlink="http://www.w3.org/1999/xlink" contentScriptType="application/ecmascript" contentStyleType="text/css" height="221px" preserveAspectRatio="none" style="width:1712px;height:221px;" version="1.1" viewBox="0 0 1712 221" width="1712px" zoomAndPan="magnify">
    <defs>
        <filter height="300%" id="fcvmgaho2g3st" width="300%" x="-1" y="-1">
            <feGaussianBlur result="blurOut" stdDeviation="2.0"/>
            <feColorMatrix in="blurOut" result="blurOut2" type="matrix" values="0 0 0 0 0 0 0 0 0 0 0 0 0 0 0 0 0 0 .4 0"/>
            <feOffset dx="4.0" dy="4.0" in="blurOut2" result="blurOut3"/>
            <feBlend in="SourceGraphic" in2="blurOut3" mode="normal"/>
        </filter>
    </defs>
    <g>
        <!--MD5=[5eb4119c60fb4974594cd715192903f1]
cluster bank.management.system-->
        <polygon fill="#FFFFFF" filter="url(#fcvmgaho2g3st)" points="16,6,203,6,210,29.6094,1249,29.6094,1249,214,16,214,16,6" style="stroke:#000000;stroke-width:1.5;"/>
        <line style="stroke:#000000;stroke-width:1.5;" x1="16" x2="210" y1="29.6094" y2="29.6094"/>
        <text fill="#000000" font-family="sans-serif" font-size="14" font-weight="bold" lengthAdjust="spacing" textLength="181" x="20" y="22.5332">bank.management.system</text>
        <!--MD5=[00deabcad0a27b711b625710053e7805]
cluster com.toedter.calendar-->
        <polygon fill="#FFFFFF" filter="url(#fcvmgaho2g3st)" points="1529,114,1685,114,1692,137.6094,1695,137.6094,1695,214,1529,214,1529,114" style="stroke:#000000;stroke-width:1.5;"/>
        <line style="stroke:#000000;stroke-width:1.5;" x1="1529" x2="1692" y1="137.6094" y2="137.6094"/>
        <text fill="#000000" font-family="sans-serif" font-size="14" font-weight="bold" lengthAdjust="spacing" textLength="150" x="1533" y="130.5332">com.toedter.calendar</text>
        <!--MD5=[c4061de2b4ca09897990802c4ef9a5be]
cluster java.sql-->
        <polygon fill="#FFFFFF" filter="url(#fcvmgaho2g3st)" points="1273,114,1333,114,1340,137.6094,1391,137.6094,1391,214,1273,214,1273,114" style="stroke:#000000;stroke-width:1.5;"/>
        <line style="stroke:#000000;stroke-width:1.5;" x1="1273" x2="1340" y1="137.6094" y2="137.6094"/>
        <text fill="#000000" font-family="sans-serif" font-size="14" font-weight="bold" lengthAdjust="spacing" textLength="54" x="1277" y="130.5332">java.sql</text>
        <!--MD5=[7db3c59d38ae5b37b484eb2df9368145]
cluster java.util-->
        <polygon fill="#FFFFFF" filter="url(#fcvmgaho2g3st)" points="1415,114,1476,114,1483,137.6094,1505,137.6094,1505,214,1415,214,1415,114" style="stroke:#000000;stroke-width:1.5;"/>
        <line style="stroke:#000000;stroke-width:1.5;" x1="1415" x2="1483" y1="137.6094" y2="137.6094"/>
        <text fill="#000000" font-family="sans-serif" font-size="14" font-weight="bold" lengthAdjust="spacing" textLength="55" x="1419" y="130.5332">java.util</text>
        <!--MD5=[d3d77767efcd79aacc3cf4ee00b7b2c2]
class bank.management.system.BalanceEnquiry-->
        <rect codeLine="1" fill="#FEFECE" filter="url(#fcvmgaho2g3st)" height="48" id="bank.management.system.BalanceEnquiry" style="stroke:#A80036;stroke-width:1.5;" width="118" x="863" y="42"/>
        <ellipse cx="878" cy="58" fill="#ADD1B2" rx="11" ry="11" style="stroke:#A80036;stroke-width:1.0;"/>
        <path d="M880.7656,53.875 Q880.9219,53.6563 881.1094,53.5469 Q881.2969,53.4375 881.5156,53.4375 Q881.8906,53.4375 882.125,53.7031 Q882.3594,53.9531 882.3594,54.5625 L882.3594,56.0156 Q882.3594,56.625 882.125,56.8906 Q881.8906,57.1563 881.5156,57.1563 Q881.1719,57.1563 880.9688,56.9531 Q880.7656,56.7656 880.6563,56.25 Q880.6094,55.8906 880.4219,55.7031 Q880.0938,55.3281 879.4844,55.1094 Q878.875,54.8906 878.25,54.8906 Q877.4844,54.8906 876.8438,55.2188 Q876.2188,55.5469 875.7188,56.2969 Q875.2344,57.0469 875.2344,58.0781 L875.2344,59.1719 Q875.2344,60.4063 876.125,61.2344 Q877.0156,62.0469 878.6094,62.0469 Q879.5469,62.0469 880.2031,61.7969 Q880.5938,61.6406 881.0156,61.2031 Q881.2813,60.9375 881.4219,60.8594 Q881.5781,60.7813 881.7813,60.7813 Q882.1094,60.7813 882.3594,61.0469 Q882.625,61.2969 882.625,61.6406 Q882.625,61.9844 882.2813,62.3906 Q881.7813,62.9688 880.9844,63.2969 Q879.9063,63.75 878.6094,63.75 Q877.0938,63.75 875.8906,63.125 Q874.9063,62.625 874.2188,61.5625 Q873.5313,60.4844 873.5313,59.2031 L873.5313,58.0469 Q873.5313,56.7188 874.1406,55.5781 Q874.7656,54.4219 875.8594,53.8125 Q876.9531,53.1875 878.1875,53.1875 Q878.9219,53.1875 879.5625,53.3594 Q880.2188,53.5156 880.7656,53.875 Z " fill="#000000"/>
        <text fill="#000000" font-family="sans-serif" font-size="12" lengthAdjust="spacing" textLength="86" x="892" y="62.9102">BalanceEnquiry</text>
        <line style="stroke:#A80036;stroke-width:1.5;" x1="864" x2="980" y1="74" y2="74"/>
        <line style="stroke:#A80036;stroke-width:1.5;" x1="864" x2="980" y1="82" y2="82"/>
        <!--MD5=[e56c7350a7b8bac780dafff0d302e59c]
class bank.management.system.Diposit-->
        <rect codeLine="2" fill="#FEFECE" filter="url(#fcvmgaho2g3st)" height="48" id="bank.management.system.Diposit" style="stroke:#A80036;stroke-width:1.5;" width="71" x="756.5" y="42"/>
        <ellipse cx="771.5" cy="58" fill="#ADD1B2" rx="11" ry="11" style="stroke:#A80036;stroke-width:1.0;"/>
        <path d="M774.2656,53.875 Q774.4219,53.6563 774.6094,53.5469 Q774.7969,53.4375 775.0156,53.4375 Q775.3906,53.4375 775.625,53.7031 Q775.8594,53.9531 775.8594,54.5625 L775.8594,56.0156 Q775.8594,56.625 775.625,56.8906 Q775.3906,57.1563 775.0156,57.1563 Q774.6719,57.1563 774.4688,56.9531 Q774.2656,56.7656 774.1563,56.25 Q774.1094,55.8906 773.9219,55.7031 Q773.5938,55.3281 772.9844,55.1094 Q772.375,54.8906 771.75,54.8906 Q770.9844,54.8906 770.3438,55.2188 Q769.7188,55.5469 769.2188,56.2969 Q768.7344,57.0469 768.7344,58.0781 L768.7344,59.1719 Q768.7344,60.4063 769.625,61.2344 Q770.5156,62.0469 772.1094,62.0469 Q773.0469,62.0469 773.7031,61.7969 Q774.0938,61.6406 774.5156,61.2031 Q774.7813,60.9375 774.9219,60.8594 Q775.0781,60.7813 775.2813,60.7813 Q775.6094,60.7813 775.8594,61.0469 Q776.125,61.2969 776.125,61.6406 Q776.125,61.9844 775.7813,62.3906 Q775.2813,62.9688 774.4844,63.2969 Q773.4063,63.75 772.1094,63.75 Q770.5938,63.75 769.3906,63.125 Q768.4063,62.625 767.7188,61.5625 Q767.0313,60.4844 767.0313,59.2031 L767.0313,58.0469 Q767.0313,56.7188 767.6406,55.5781 Q768.2656,54.4219 769.3594,53.8125 Q770.4531,53.1875 771.6875,53.1875 Q772.4219,53.1875 773.0625,53.3594 Q773.7188,53.5156 774.2656,53.875 Z " fill="#000000"/>
        <text fill="#000000" font-family="sans-serif" font-size="12" lengthAdjust="spacing" textLength="39" x="785.5" y="62.9102">Diposit</text>
        <line style="stroke:#A80036;stroke-width:1.5;" x1="757.5" x2="826.5" y1="74" y2="74"/>
        <line style="stroke:#A80036;stroke-width:1.5;" x1="757.5" x2="826.5" y1="82" y2="82"/>
        <!--MD5=[ff9e512b4b699896f7370c8e49ae2a63]
class bank.management.system.FastCash-->
        <rect codeLine="3" fill="#FEFECE" filter="url(#fcvmgaho2g3st)" height="48" id="bank.management.system.FastCash" style="stroke:#A80036;stroke-width:1.5;" width="86" x="1016" y="42"/>
        <ellipse cx="1031" cy="58" fill="#ADD1B2" rx="11" ry="11" style="stroke:#A80036;stroke-width:1.0;"/>
        <path d="M1033.7656,53.875 Q1033.9219,53.6563 1034.1094,53.5469 Q1034.2969,53.4375 1034.5156,53.4375 Q1034.8906,53.4375 1035.125,53.7031 Q1035.3594,53.9531 1035.3594,54.5625 L1035.3594,56.0156 Q1035.3594,56.625 1035.125,56.8906 Q1034.8906,57.1563 1034.5156,57.1563 Q1034.1719,57.1563 1033.9688,56.9531 Q1033.7656,56.7656 1033.6563,56.25 Q1033.6094,55.8906 1033.4219,55.7031 Q1033.0938,55.3281 1032.4844,55.1094 Q1031.875,54.8906 1031.25,54.8906 Q1030.4844,54.8906 1029.8438,55.2188 Q1029.2188,55.5469 1028.7188,56.2969 Q1028.2344,57.0469 1028.2344,58.0781 L1028.2344,59.1719 Q1028.2344,60.4063 1029.125,61.2344 Q1030.0156,62.0469 1031.6094,62.0469 Q1032.5469,62.0469 1033.2031,61.7969 Q1033.5938,61.6406 1034.0156,61.2031 Q1034.2813,60.9375 1034.4219,60.8594 Q1034.5781,60.7813 1034.7813,60.7813 Q1035.1094,60.7813 1035.3594,61.0469 Q1035.625,61.2969 1035.625,61.6406 Q1035.625,61.9844 1035.2813,62.3906 Q1034.7813,62.9688 1033.9844,63.2969 Q1032.9063,63.75 1031.6094,63.75 Q1030.0938,63.75 1028.8906,63.125 Q1027.9063,62.625 1027.2188,61.5625 Q1026.5313,60.4844 1026.5313,59.2031 L1026.5313,58.0469 Q1026.5313,56.7188 1027.1406,55.5781 Q1027.7656,54.4219 1028.8594,53.8125 Q1029.9531,53.1875 1031.1875,53.1875 Q1031.9219,53.1875 1032.5625,53.3594 Q1033.2188,53.5156 1033.7656,53.875 Z " fill="#000000"/>
        <text fill="#000000" font-family="sans-serif" font-size="12" lengthAdjust="spacing" textLength="54" x="1045" y="62.9102">FastCash</text>
        <line style="stroke:#A80036;stroke-width:1.5;" x1="1017" x2="1101" y1="74" y2="74"/>
        <line style="stroke:#A80036;stroke-width:1.5;" x1="1017" x2="1101" y1="82" y2="82"/>
        <!--MD5=[e28082eb7fc1bb4b3c21a309e1a35ad8]
class bank.management.system.JFrame-->
        <rect codeLine="4" fill="#FEFECE" filter="url(#fcvmgaho2g3st)" height="48" id="bank.management.system.JFrame" style="stroke:#A80036;stroke-width:1.5;" width="74" x="581" y="150"/>
        <ellipse cx="596" cy="166" fill="#ADD1B2" rx="11" ry="11" style="stroke:#A80036;stroke-width:1.0;"/>
        <path d="M598.7656,161.875 Q598.9219,161.6563 599.1094,161.5469 Q599.2969,161.4375 599.5156,161.4375 Q599.8906,161.4375 600.125,161.7031 Q600.3594,161.9531 600.3594,162.5625 L600.3594,164.0156 Q600.3594,164.625 600.125,164.8906 Q599.8906,165.1563 599.5156,165.1563 Q599.1719,165.1563 598.9688,164.9531 Q598.7656,164.7656 598.6563,164.25 Q598.6094,163.8906 598.4219,163.7031 Q598.0938,163.3281 597.4844,163.1094 Q596.875,162.8906 596.25,162.8906 Q595.4844,162.8906 594.8438,163.2188 Q594.2188,163.5469 593.7188,164.2969 Q593.2344,165.0469 593.2344,166.0781 L593.2344,167.1719 Q593.2344,168.4063 594.125,169.2344 Q595.0156,170.0469 596.6094,170.0469 Q597.5469,170.0469 598.2031,169.7969 Q598.5938,169.6406 599.0156,169.2031 Q599.2813,168.9375 599.4219,168.8594 Q599.5781,168.7813 599.7813,168.7813 Q600.1094,168.7813 600.3594,169.0469 Q600.625,169.2969 600.625,169.6406 Q600.625,169.9844 600.2813,170.3906 Q599.7813,170.9688 598.9844,171.2969 Q597.9063,171.75 596.6094,171.75 Q595.0938,171.75 593.8906,171.125 Q592.9063,170.625 592.2188,169.5625 Q591.5313,168.4844 591.5313,167.2031 L591.5313,166.0469 Q591.5313,164.7188 592.1406,163.5781 Q592.7656,162.4219 593.8594,161.8125 Q594.9531,161.1875 596.1875,161.1875 Q596.9219,161.1875 597.5625,161.3594 Q598.2188,161.5156 598.7656,161.875 Z " fill="#000000"/>
        <text fill="#000000" font-family="sans-serif" font-size="12" lengthAdjust="spacing" textLength="42" x="610" y="170.9102">JFrame</text>
        <line style="stroke:#A80036;stroke-width:1.5;" x1="582" x2="654" y1="182" y2="182"/>
        <line style="stroke:#A80036;stroke-width:1.5;" x1="582" x2="654" y1="190" y2="190"/>
        <!--MD5=[4c0d6968e12df50f1de01dd315ef45ce]
class bank.management.system.Login-->
        <rect codeLine="5" fill="#FEFECE" filter="url(#fcvmgaho2g3st)" height="48" id="bank.management.system.Login" style="stroke:#A80036;stroke-width:1.5;" width="63" x="658.5" y="42"/>
        <ellipse cx="673.5" cy="58" fill="#ADD1B2" rx="11" ry="11" style="stroke:#A80036;stroke-width:1.0;"/>
        <path d="M676.2656,53.875 Q676.4219,53.6563 676.6094,53.5469 Q676.7969,53.4375 677.0156,53.4375 Q677.3906,53.4375 677.625,53.7031 Q677.8594,53.9531 677.8594,54.5625 L677.8594,56.0156 Q677.8594,56.625 677.625,56.8906 Q677.3906,57.1563 677.0156,57.1563 Q676.6719,57.1563 676.4688,56.9531 Q676.2656,56.7656 676.1563,56.25 Q676.1094,55.8906 675.9219,55.7031 Q675.5938,55.3281 674.9844,55.1094 Q674.375,54.8906 673.75,54.8906 Q672.9844,54.8906 672.3438,55.2188 Q671.7188,55.5469 671.2188,56.2969 Q670.7344,57.0469 670.7344,58.0781 L670.7344,59.1719 Q670.7344,60.4063 671.625,61.2344 Q672.5156,62.0469 674.1094,62.0469 Q675.0469,62.0469 675.7031,61.7969 Q676.0938,61.6406 676.5156,61.2031 Q676.7813,60.9375 676.9219,60.8594 Q677.0781,60.7813 677.2813,60.7813 Q677.6094,60.7813 677.8594,61.0469 Q678.125,61.2969 678.125,61.6406 Q678.125,61.9844 677.7813,62.3906 Q677.2813,62.9688 676.4844,63.2969 Q675.4063,63.75 674.1094,63.75 Q672.5938,63.75 671.3906,63.125 Q670.4063,62.625 669.7188,61.5625 Q669.0313,60.4844 669.0313,59.2031 L669.0313,58.0469 Q669.0313,56.7188 669.6406,55.5781 Q670.2656,54.4219 671.3594,53.8125 Q672.4531,53.1875 673.6875,53.1875 Q674.4219,53.1875 675.0625,53.3594 Q675.7188,53.5156 676.2656,53.875 Z " fill="#000000"/>
        <text fill="#000000" font-family="sans-serif" font-size="12" lengthAdjust="spacing" textLength="31" x="687.5" y="62.9102">Login</text>
        <line style="stroke:#A80036;stroke-width:1.5;" x1="659.5" x2="720.5" y1="74" y2="74"/>
        <line style="stroke:#A80036;stroke-width:1.5;" x1="659.5" x2="720.5" y1="82" y2="82"/>
        <!--MD5=[322f242a752a0d2635b322f8c3c3633d]
class bank.management.system.SignUpOne-->
        <rect codeLine="6" fill="#FEFECE" filter="url(#fcvmgaho2g3st)" height="48" id="bank.management.system.SignUpOne" style="stroke:#A80036;stroke-width:1.5;" width="96" x="1137" y="42"/>
        <ellipse cx="1152" cy="58" fill="#ADD1B2" rx="11" ry="11" style="stroke:#A80036;stroke-width:1.0;"/>
        <path d="M1154.7656,53.875 Q1154.9219,53.6563 1155.1094,53.5469 Q1155.2969,53.4375 1155.5156,53.4375 Q1155.8906,53.4375 1156.125,53.7031 Q1156.3594,53.9531 1156.3594,54.5625 L1156.3594,56.0156 Q1156.3594,56.625 1156.125,56.8906 Q1155.8906,57.1563 1155.5156,57.1563 Q1155.1719,57.1563 1154.9688,56.9531 Q1154.7656,56.7656 1154.6563,56.25 Q1154.6094,55.8906 1154.4219,55.7031 Q1154.0938,55.3281 1153.4844,55.1094 Q1152.875,54.8906 1152.25,54.8906 Q1151.4844,54.8906 1150.8438,55.2188 Q1150.2188,55.5469 1149.7188,56.2969 Q1149.2344,57.0469 1149.2344,58.0781 L1149.2344,59.1719 Q1149.2344,60.4063 1150.125,61.2344 Q1151.0156,62.0469 1152.6094,62.0469 Q1153.5469,62.0469 1154.2031,61.7969 Q1154.5938,61.6406 1155.0156,61.2031 Q1155.2813,60.9375 1155.4219,60.8594 Q1155.5781,60.7813 1155.7813,60.7813 Q1156.1094,60.7813 1156.3594,61.0469 Q1156.625,61.2969 1156.625,61.6406 Q1156.625,61.9844 1156.2813,62.3906 Q1155.7813,62.9688 1154.9844,63.2969 Q1153.9063,63.75 1152.6094,63.75 Q1151.0938,63.75 1149.8906,63.125 Q1148.9063,62.625 1148.2188,61.5625 Q1147.5313,60.4844 1147.5313,59.2031 L1147.5313,58.0469 Q1147.5313,56.7188 1148.1406,55.5781 Q1148.7656,54.4219 1149.8594,53.8125 Q1150.9531,53.1875 1152.1875,53.1875 Q1152.9219,53.1875 1153.5625,53.3594 Q1154.2188,53.5156 1154.7656,53.875 Z " fill="#000000"/>
        <text fill="#000000" font-family="sans-serif" font-size="12" lengthAdjust="spacing" textLength="64" x="1166" y="62.9102">SignUpOne</text>
        <line style="stroke:#A80036;stroke-width:1.5;" x1="1138" x2="1232" y1="74" y2="74"/>
        <line style="stroke:#A80036;stroke-width:1.5;" x1="1138" x2="1232" y1="82" y2="82"/>
        <!--MD5=[46544caee99a717fc25498c367c1bd1f]
class bank.management.system.SignUpThree-->
        <rect codeLine="7" fill="#FEFECE" filter="url(#fcvmgaho2g3st)" height="48" id="bank.management.system.SignUpThree" style="stroke:#A80036;stroke-width:1.5;" width="105" x="518.5" y="42"/>
        <ellipse cx="533.5" cy="58" fill="#ADD1B2" rx="11" ry="11" style="stroke:#A80036;stroke-width:1.0;"/>
        <path d="M536.2656,53.875 Q536.4219,53.6563 536.6094,53.5469 Q536.7969,53.4375 537.0156,53.4375 Q537.3906,53.4375 537.625,53.7031 Q537.8594,53.9531 537.8594,54.5625 L537.8594,56.0156 Q537.8594,56.625 537.625,56.8906 Q537.3906,57.1563 537.0156,57.1563 Q536.6719,57.1563 536.4688,56.9531 Q536.2656,56.7656 536.1563,56.25 Q536.1094,55.8906 535.9219,55.7031 Q535.5938,55.3281 534.9844,55.1094 Q534.375,54.8906 533.75,54.8906 Q532.9844,54.8906 532.3438,55.2188 Q531.7188,55.5469 531.2188,56.2969 Q530.7344,57.0469 530.7344,58.0781 L530.7344,59.1719 Q530.7344,60.4063 531.625,61.2344 Q532.5156,62.0469 534.1094,62.0469 Q535.0469,62.0469 535.7031,61.7969 Q536.0938,61.6406 536.5156,61.2031 Q536.7813,60.9375 536.9219,60.8594 Q537.0781,60.7813 537.2813,60.7813 Q537.6094,60.7813 537.8594,61.0469 Q538.125,61.2969 538.125,61.6406 Q538.125,61.9844 537.7813,62.3906 Q537.2813,62.9688 536.4844,63.2969 Q535.4063,63.75 534.1094,63.75 Q532.5938,63.75 531.3906,63.125 Q530.4063,62.625 529.7188,61.5625 Q529.0313,60.4844 529.0313,59.2031 L529.0313,58.0469 Q529.0313,56.7188 529.6406,55.5781 Q530.2656,54.4219 531.3594,53.8125 Q532.4531,53.1875 533.6875,53.1875 Q534.4219,53.1875 535.0625,53.3594 Q535.7188,53.5156 536.2656,53.875 Z " fill="#000000"/>
        <text fill="#000000" font-family="sans-serif" font-size="12" lengthAdjust="spacing" textLength="73" x="547.5" y="62.9102">SignUpThree</text>
        <line style="stroke:#A80036;stroke-width:1.5;" x1="519.5" x2="622.5" y1="74" y2="74"/>
        <line style="stroke:#A80036;stroke-width:1.5;" x1="519.5" x2="622.5" y1="82" y2="82"/>
        <!--MD5=[34120b725a104c365dbb0d157de73786]
class bank.management.system.SignUpTwo-->
        <rect codeLine="8" fill="#FEFECE" filter="url(#fcvmgaho2g3st)" height="48" id="bank.management.system.SignUpTwo" style="stroke:#A80036;stroke-width:1.5;" width="96" x="387" y="42"/>
        <ellipse cx="402" cy="58" fill="#ADD1B2" rx="11" ry="11" style="stroke:#A80036;stroke-width:1.0;"/>
        <path d="M404.7656,53.875 Q404.9219,53.6563 405.1094,53.5469 Q405.2969,53.4375 405.5156,53.4375 Q405.8906,53.4375 406.125,53.7031 Q406.3594,53.9531 406.3594,54.5625 L406.3594,56.0156 Q406.3594,56.625 406.125,56.8906 Q405.8906,57.1563 405.5156,57.1563 Q405.1719,57.1563 404.9688,56.9531 Q404.7656,56.7656 404.6563,56.25 Q404.6094,55.8906 404.4219,55.7031 Q404.0938,55.3281 403.4844,55.1094 Q402.875,54.8906 402.25,54.8906 Q401.4844,54.8906 400.8438,55.2188 Q400.2188,55.5469 399.7188,56.2969 Q399.2344,57.0469 399.2344,58.0781 L399.2344,59.1719 Q399.2344,60.4063 400.125,61.2344 Q401.0156,62.0469 402.6094,62.0469 Q403.5469,62.0469 404.2031,61.7969 Q404.5938,61.6406 405.0156,61.2031 Q405.2813,60.9375 405.4219,60.8594 Q405.5781,60.7813 405.7813,60.7813 Q406.1094,60.7813 406.3594,61.0469 Q406.625,61.2969 406.625,61.6406 Q406.625,61.9844 406.2813,62.3906 Q405.7813,62.9688 404.9844,63.2969 Q403.9063,63.75 402.6094,63.75 Q401.0938,63.75 399.8906,63.125 Q398.9063,62.625 398.2188,61.5625 Q397.5313,60.4844 397.5313,59.2031 L397.5313,58.0469 Q397.5313,56.7188 398.1406,55.5781 Q398.7656,54.4219 399.8594,53.8125 Q400.9531,53.1875 402.1875,53.1875 Q402.9219,53.1875 403.5625,53.3594 Q404.2188,53.5156 404.7656,53.875 Z " fill="#000000"/>
        <text fill="#000000" font-family="sans-serif" font-size="12" lengthAdjust="spacing" textLength="64" x="416" y="62.9102">SignUpTwo</text>
        <line style="stroke:#A80036;stroke-width:1.5;" x1="388" x2="482" y1="74" y2="74"/>
        <line style="stroke:#A80036;stroke-width:1.5;" x1="388" x2="482" y1="82" y2="82"/>
        <!--MD5=[de70d5291fa8ac569d968a59ba487466]
class bank.management.system.Transection-->
        <rect codeLine="9" fill="#FEFECE" filter="url(#fcvmgaho2g3st)" height="48" id="bank.management.system.Transection" style="stroke:#A80036;stroke-width:1.5;" width="97" x="254.5" y="42"/>
        <ellipse cx="269.5" cy="58" fill="#ADD1B2" rx="11" ry="11" style="stroke:#A80036;stroke-width:1.0;"/>
        <path d="M272.2656,53.875 Q272.4219,53.6563 272.6094,53.5469 Q272.7969,53.4375 273.0156,53.4375 Q273.3906,53.4375 273.625,53.7031 Q273.8594,53.9531 273.8594,54.5625 L273.8594,56.0156 Q273.8594,56.625 273.625,56.8906 Q273.3906,57.1563 273.0156,57.1563 Q272.6719,57.1563 272.4688,56.9531 Q272.2656,56.7656 272.1563,56.25 Q272.1094,55.8906 271.9219,55.7031 Q271.5938,55.3281 270.9844,55.1094 Q270.375,54.8906 269.75,54.8906 Q268.9844,54.8906 268.3438,55.2188 Q267.7188,55.5469 267.2188,56.2969 Q266.7344,57.0469 266.7344,58.0781 L266.7344,59.1719 Q266.7344,60.4063 267.625,61.2344 Q268.5156,62.0469 270.1094,62.0469 Q271.0469,62.0469 271.7031,61.7969 Q272.0938,61.6406 272.5156,61.2031 Q272.7813,60.9375 272.9219,60.8594 Q273.0781,60.7813 273.2813,60.7813 Q273.6094,60.7813 273.8594,61.0469 Q274.125,61.2969 274.125,61.6406 Q274.125,61.9844 273.7813,62.3906 Q273.2813,62.9688 272.4844,63.2969 Q271.4063,63.75 270.1094,63.75 Q268.5938,63.75 267.3906,63.125 Q266.4063,62.625 265.7188,61.5625 Q265.0313,60.4844 265.0313,59.2031 L265.0313,58.0469 Q265.0313,56.7188 265.6406,55.5781 Q266.2656,54.4219 267.3594,53.8125 Q268.4531,53.1875 269.6875,53.1875 Q270.4219,53.1875 271.0625,53.3594 Q271.7188,53.5156 272.2656,53.875 Z " fill="#000000"/>
        <text fill="#000000" font-family="sans-serif" font-size="12" lengthAdjust="spacing" textLength="65" x="283.5" y="62.9102">Transection</text>
        <line style="stroke:#A80036;stroke-width:1.5;" x1="255.5" x2="350.5" y1="74" y2="74"/>
        <line style="stroke:#A80036;stroke-width:1.5;" x1="255.5" x2="350.5" y1="82" y2="82"/>
        <!--MD5=[9ddc94551463f69104ccbe8ff0b0e3dc]
class bank.management.system.Withdrawal-->
        <rect codeLine="10" fill="#FEFECE" filter="url(#fcvmgaho2g3st)" height="48" id="bank.management.system.Withdrawal" style="stroke:#A80036;stroke-width:1.5;" width="93" x="126.5" y="42"/>
        <ellipse cx="141.5" cy="58" fill="#ADD1B2" rx="11" ry="11" style="stroke:#A80036;stroke-width:1.0;"/>
        <path d="M144.2656,53.875 Q144.4219,53.6563 144.6094,53.5469 Q144.7969,53.4375 145.0156,53.4375 Q145.3906,53.4375 145.625,53.7031 Q145.8594,53.9531 145.8594,54.5625 L145.8594,56.0156 Q145.8594,56.625 145.625,56.8906 Q145.3906,57.1563 145.0156,57.1563 Q144.6719,57.1563 144.4688,56.9531 Q144.2656,56.7656 144.1563,56.25 Q144.1094,55.8906 143.9219,55.7031 Q143.5938,55.3281 142.9844,55.1094 Q142.375,54.8906 141.75,54.8906 Q140.9844,54.8906 140.3438,55.2188 Q139.7188,55.5469 139.2188,56.2969 Q138.7344,57.0469 138.7344,58.0781 L138.7344,59.1719 Q138.7344,60.4063 139.625,61.2344 Q140.5156,62.0469 142.1094,62.0469 Q143.0469,62.0469 143.7031,61.7969 Q144.0938,61.6406 144.5156,61.2031 Q144.7813,60.9375 144.9219,60.8594 Q145.0781,60.7813 145.2813,60.7813 Q145.6094,60.7813 145.8594,61.0469 Q146.125,61.2969 146.125,61.6406 Q146.125,61.9844 145.7813,62.3906 Q145.2813,62.9688 144.4844,63.2969 Q143.4063,63.75 142.1094,63.75 Q140.5938,63.75 139.3906,63.125 Q138.4063,62.625 137.7188,61.5625 Q137.0313,60.4844 137.0313,59.2031 L137.0313,58.0469 Q137.0313,56.7188 137.6406,55.5781 Q138.2656,54.4219 139.3594,53.8125 Q140.4531,53.1875 141.6875,53.1875 Q142.4219,53.1875 143.0625,53.3594 Q143.7188,53.5156 144.2656,53.875 Z " fill="#000000"/>
        <text fill="#000000" font-family="sans-serif" font-size="12" lengthAdjust="spacing" textLength="61" x="155.5" y="62.9102">Withdrawal</text>
        <line style="stroke:#A80036;stroke-width:1.5;" x1="127.5" x2="218.5" y1="74" y2="74"/>
        <line style="stroke:#A80036;stroke-width:1.5;" x1="127.5" x2="218.5" y1="82" y2="82"/>
        <!--MD5=[0d700af41972a4c3778a8cf297d0d46f]
class bank.management.system.conn-->
        <rect codeLine="11" fill="#FEFECE" filter="url(#fcvmgaho2g3st)" height="48" id="bank.management.system.conn" style="stroke:#A80036;stroke-width:1.5;" width="59" x="32.5" y="42"/>
        <ellipse cx="47.5" cy="58" fill="#ADD1B2" rx="11" ry="11" style="stroke:#A80036;stroke-width:1.0;"/>
        <path d="M50.2656,53.875 Q50.4219,53.6563 50.6094,53.5469 Q50.7969,53.4375 51.0156,53.4375 Q51.3906,53.4375 51.625,53.7031 Q51.8594,53.9531 51.8594,54.5625 L51.8594,56.0156 Q51.8594,56.625 51.625,56.8906 Q51.3906,57.1563 51.0156,57.1563 Q50.6719,57.1563 50.4688,56.9531 Q50.2656,56.7656 50.1563,56.25 Q50.1094,55.8906 49.9219,55.7031 Q49.5938,55.3281 48.9844,55.1094 Q48.375,54.8906 47.75,54.8906 Q46.9844,54.8906 46.3438,55.2188 Q45.7188,55.5469 45.2188,56.2969 Q44.7344,57.0469 44.7344,58.0781 L44.7344,59.1719 Q44.7344,60.4063 45.625,61.2344 Q46.5156,62.0469 48.1094,62.0469 Q49.0469,62.0469 49.7031,61.7969 Q50.0938,61.6406 50.5156,61.2031 Q50.7813,60.9375 50.9219,60.8594 Q51.0781,60.7813 51.2813,60.7813 Q51.6094,60.7813 51.8594,61.0469 Q52.125,61.2969 52.125,61.6406 Q52.125,61.9844 51.7813,62.3906 Q51.2813,62.9688 50.4844,63.2969 Q49.4063,63.75 48.1094,63.75 Q46.5938,63.75 45.3906,63.125 Q44.4063,62.625 43.7188,61.5625 Q43.0313,60.4844 43.0313,59.2031 L43.0313,58.0469 Q43.0313,56.7188 43.6406,55.5781 Q44.2656,54.4219 45.3594,53.8125 Q46.4531,53.1875 47.6875,53.1875 Q48.4219,53.1875 49.0625,53.3594 Q49.7188,53.5156 50.2656,53.875 Z " fill="#000000"/>
        <text fill="#000000" font-family="sans-serif" font-size="12" lengthAdjust="spacing" textLength="27" x="61.5" y="62.9102">conn</text>
        <line style="stroke:#A80036;stroke-width:1.5;" x1="33.5" x2="90.5" y1="74" y2="74"/>
        <line style="stroke:#A80036;stroke-width:1.5;" x1="33.5" x2="90.5" y1="82" y2="82"/>
        <!--MD5=[8756227fa6bf2e03bd706f637099c1eb]
class bank.management.system.ActionListener-->
        <rect codeLine="15" fill="#FEFECE" filter="url(#fcvmgaho2g3st)" height="48" id="bank.management.system.ActionListener" style="stroke:#A80036;stroke-width:1.5;" width="110" x="690" y="150"/>
        <ellipse cx="705" cy="166" fill="#B4A7E5" rx="11" ry="11" style="stroke:#A80036;stroke-width:1.0;"/>
        <path d="M705.9531,162.6406 L705.9531,169.2969 L707.6719,169.2969 Q708.2813,169.2969 708.5469,169.5313 Q708.8125,169.7656 708.8125,170.1563 Q708.8125,170.5313 708.5469,170.7656 Q708.2813,171 707.6719,171 L702.5313,171 Q701.9219,171 701.6563,170.7656 Q701.3906,170.5313 701.3906,170.1406 Q701.3906,169.7656 701.6563,169.5313 Q701.9219,169.2969 702.5313,169.2969 L704.25,169.2969 L704.25,162.6406 L702.5313,162.6406 Q701.9219,162.6406 701.6563,162.4063 Q701.3906,162.1719 701.3906,161.7813 Q701.3906,161.4063 701.6563,161.1719 Q701.9219,160.9375 702.5313,160.9375 L707.6719,160.9375 Q708.2813,160.9375 708.5469,161.1719 Q708.8125,161.4063 708.8125,161.7813 Q708.8125,162.1719 708.5469,162.4063 Q708.2813,162.6406 707.6719,162.6406 L705.9531,162.6406 Z " fill="#000000"/>
        <text fill="#000000" font-family="sans-serif" font-size="12" font-style="italic" lengthAdjust="spacing" textLength="78" x="719" y="170.9102">ActionListener</text>
        <line style="stroke:#A80036;stroke-width:1.5;" x1="691" x2="799" y1="182" y2="182"/>
        <line style="stroke:#A80036;stroke-width:1.5;" x1="691" x2="799" y1="190" y2="190"/>
        <!--MD5=[42f299f094e3736568a72743b87eef6a]
class com.toedter.calendar.JDateChooser-->
        <rect codeLine="12" fill="#FEFECE" filter="url(#fcvmgaho2g3st)" height="48" id="com.toedter.calendar.JDateChooser" style="stroke:#A80036;stroke-width:1.5;" width="112" x="1545" y="150"/>
        <ellipse cx="1560" cy="166" fill="#ADD1B2" rx="11" ry="11" style="stroke:#A80036;stroke-width:1.0;"/>
        <path d="M1562.7656,161.875 Q1562.9219,161.6563 1563.1094,161.5469 Q1563.2969,161.4375 1563.5156,161.4375 Q1563.8906,161.4375 1564.125,161.7031 Q1564.3594,161.9531 1564.3594,162.5625 L1564.3594,164.0156 Q1564.3594,164.625 1564.125,164.8906 Q1563.8906,165.1563 1563.5156,165.1563 Q1563.1719,165.1563 1562.9688,164.9531 Q1562.7656,164.7656 1562.6563,164.25 Q1562.6094,163.8906 1562.4219,163.7031 Q1562.0938,163.3281 1561.4844,163.1094 Q1560.875,162.8906 1560.25,162.8906 Q1559.4844,162.8906 1558.8438,163.2188 Q1558.2188,163.5469 1557.7188,164.2969 Q1557.2344,165.0469 1557.2344,166.0781 L1557.2344,167.1719 Q1557.2344,168.4063 1558.125,169.2344 Q1559.0156,170.0469 1560.6094,170.0469 Q1561.5469,170.0469 1562.2031,169.7969 Q1562.5938,169.6406 1563.0156,169.2031 Q1563.2813,168.9375 1563.4219,168.8594 Q1563.5781,168.7813 1563.7813,168.7813 Q1564.1094,168.7813 1564.3594,169.0469 Q1564.625,169.2969 1564.625,169.6406 Q1564.625,169.9844 1564.2813,170.3906 Q1563.7813,170.9688 1562.9844,171.2969 Q1561.9063,171.75 1560.6094,171.75 Q1559.0938,171.75 1557.8906,171.125 Q1556.9063,170.625 1556.2188,169.5625 Q1555.5313,168.4844 1555.5313,167.2031 L1555.5313,166.0469 Q1555.5313,164.7188 1556.1406,163.5781 Q1556.7656,162.4219 1557.8594,161.8125 Q1558.9531,161.1875 1560.1875,161.1875 Q1560.9219,161.1875 1561.5625,161.3594 Q1562.2188,161.5156 1562.7656,161.875 Z " fill="#000000"/>
        <text fill="#000000" font-family="sans-serif" font-size="12" lengthAdjust="spacing" textLength="80" x="1574" y="170.9102">JDateChooser</text>
        <line style="stroke:#A80036;stroke-width:1.5;" x1="1546" x2="1656" y1="182" y2="182"/>
        <line style="stroke:#A80036;stroke-width:1.5;" x1="1546" x2="1656" y1="190" y2="190"/>
        <!--MD5=[ca3892dc8b0229ebf88950402efb7cd1]
class java.sql.ResultSet-->
        <rect codeLine="13" fill="#FEFECE" filter="url(#fcvmgaho2g3st)" height="48" id="java.sql.ResultSet" style="stroke:#A80036;stroke-width:1.5;" width="86" x="1289" y="150"/>
        <ellipse cx="1304" cy="166" fill="#ADD1B2" rx="11" ry="11" style="stroke:#A80036;stroke-width:1.0;"/>
        <path d="M1306.7656,161.875 Q1306.9219,161.6563 1307.1094,161.5469 Q1307.2969,161.4375 1307.5156,161.4375 Q1307.8906,161.4375 1308.125,161.7031 Q1308.3594,161.9531 1308.3594,162.5625 L1308.3594,164.0156 Q1308.3594,164.625 1308.125,164.8906 Q1307.8906,165.1563 1307.5156,165.1563 Q1307.1719,165.1563 1306.9688,164.9531 Q1306.7656,164.7656 1306.6563,164.25 Q1306.6094,163.8906 1306.4219,163.7031 Q1306.0938,163.3281 1305.4844,163.1094 Q1304.875,162.8906 1304.25,162.8906 Q1303.4844,162.8906 1302.8438,163.2188 Q1302.2188,163.5469 1301.7188,164.2969 Q1301.2344,165.0469 1301.2344,166.0781 L1301.2344,167.1719 Q1301.2344,168.4063 1302.125,169.2344 Q1303.0156,170.0469 1304.6094,170.0469 Q1305.5469,170.0469 1306.2031,169.7969 Q1306.5938,169.6406 1307.0156,169.2031 Q1307.2813,168.9375 1307.4219,168.8594 Q1307.5781,168.7813 1307.7813,168.7813 Q1308.1094,168.7813 1308.3594,169.0469 Q1308.625,169.2969 1308.625,169.6406 Q1308.625,169.9844 1308.2813,170.3906 Q1307.7813,170.9688 1306.9844,171.2969 Q1305.9063,171.75 1304.6094,171.75 Q1303.0938,171.75 1301.8906,171.125 Q1300.9063,170.625 1300.2188,169.5625 Q1299.5313,168.4844 1299.5313,167.2031 L1299.5313,166.0469 Q1299.5313,164.7188 1300.1406,163.5781 Q1300.7656,162.4219 1301.8594,161.8125 Q1302.9531,161.1875 1304.1875,161.1875 Q1304.9219,161.1875 1305.5625,161.3594 Q1306.2188,161.5156 1306.7656,161.875 Z " fill="#000000"/>
        <text fill="#000000" font-family="sans-serif" font-size="12" lengthAdjust="spacing" textLength="54" x="1318" y="170.9102">ResultSet</text>
        <line style="stroke:#A80036;stroke-width:1.5;" x1="1290" x2="1374" y1="182" y2="182"/>
        <line style="stroke:#A80036;stroke-width:1.5;" x1="1290" x2="1374" y1="190" y2="190"/>
        <!--MD5=[841ec3fa1aa23f12cbd94f7df729e1eb]
class java.util.Date-->
        <rect codeLine="14" fill="#FEFECE" filter="url(#fcvmgaho2g3st)" height="48" id="java.util.Date" style="stroke:#A80036;stroke-width:1.5;" width="58" x="1431" y="150"/>
        <ellipse cx="1446" cy="166" fill="#ADD1B2" rx="11" ry="11" style="stroke:#A80036;stroke-width:1.0;"/>
        <path d="M1448.7656,161.875 Q1448.9219,161.6563 1449.1094,161.5469 Q1449.2969,161.4375 1449.5156,161.4375 Q1449.8906,161.4375 1450.125,161.7031 Q1450.3594,161.9531 1450.3594,162.5625 L1450.3594,164.0156 Q1450.3594,164.625 1450.125,164.8906 Q1449.8906,165.1563 1449.5156,165.1563 Q1449.1719,165.1563 1448.9688,164.9531 Q1448.7656,164.7656 1448.6563,164.25 Q1448.6094,163.8906 1448.4219,163.7031 Q1448.0938,163.3281 1447.4844,163.1094 Q1446.875,162.8906 1446.25,162.8906 Q1445.4844,162.8906 1444.8438,163.2188 Q1444.2188,163.5469 1443.7188,164.2969 Q1443.2344,165.0469 1443.2344,166.0781 L1443.2344,167.1719 Q1443.2344,168.4063 1444.125,169.2344 Q1445.0156,170.0469 1446.6094,170.0469 Q1447.5469,170.0469 1448.2031,169.7969 Q1448.5938,169.6406 1449.0156,169.2031 Q1449.2813,168.9375 1449.4219,168.8594 Q1449.5781,168.7813 1449.7813,168.7813 Q1450.1094,168.7813 1450.3594,169.0469 Q1450.625,169.2969 1450.625,169.6406 Q1450.625,169.9844 1450.2813,170.3906 Q1449.7813,170.9688 1448.9844,171.2969 Q1447.9063,171.75 1446.6094,171.75 Q1445.0938,171.75 1443.8906,171.125 Q1442.9063,170.625 1442.2188,169.5625 Q1441.5313,168.4844 1441.5313,167.2031 L1441.5313,166.0469 Q1441.5313,164.7188 1442.1406,163.5781 Q1442.7656,162.4219 1443.8594,161.8125 Q1444.9531,161.1875 1446.1875,161.1875 Q1446.9219,161.1875 1447.5625,161.3594 Q1448.2188,161.5156 1448.7656,161.875 Z " fill="#000000"/>
        <text fill="#000000" font-family="sans-serif" font-size="12" lengthAdjust="spacing" textLength="26" x="1460" y="170.9102">Date</text>
        <line style="stroke:#A80036;stroke-width:1.5;" x1="1432" x2="1488" y1="182" y2="182"/>
        <line style="stroke:#A80036;stroke-width:1.5;" x1="1432" x2="1488" y1="190" y2="190"/>
        <!--MD5=[61040b12358c89c10ab6dee7c14c85a8]
link bank.management.system.BalanceEnquiry to bank.management.system.JFrame-->
        <path codeLine="16" d="M862.6,86.01 C856.69,87.52 850.75,88.88 845,90 C807.31,97.31 706.9,88 673,106 C660.88,112.44 650.41,122.79 641.96,133.46 " fill="none" id="bank.management.system.BalanceEnquiry-to-bank.management.system.JFrame" style="stroke:#A80036;stroke-width:1.0;"/>
        <polygon fill="none" points="647.6,137.6,630.39,149.95,636.14,129.56,647.6,137.6" style="stroke:#A80036;stroke-width:1.0;"/>
        <!--MD5=[0ce5060a29468bca9c500fee63cd5c57]
link bank.management.system.BalanceEnquiry to java.sql.ResultSet-->
        <path codeLine="17" d="M981.37,86.18 C987.28,87.66 993.23,88.97 999,90 C1053.8,99.81 1197.13,85.79 1249,106 C1271.27,114.68 1292.18,131.63 1307.44,146.32 " fill="none" id="bank.management.system.BalanceEnquiry-to-java.sql.ResultSet" style="stroke:#A80036;stroke-width:1.0;stroke-dasharray:7.0,7.0;"/>
        <polygon fill="#A80036" points="1311.2,149.99,1307.5718,140.8338,1307.6289,146.4904,1301.9724,146.5475,1311.2,149.99" style="stroke:#A80036;stroke-width:1.0;"/>
        <!--MD5=[45bf5b096cc6678f2e4f767142fa9803]
link bank.management.system.BalanceEnquiry to bank.management.system.ActionListener-->
        <path codeLine="18" d="M883.59,90 C859.44,104.47 827.86,123.38 800.95,139.49 " fill="none" id="bank.management.system.BalanceEnquiry-to-bank.management.system.ActionListener" style="stroke:#A80036;stroke-width:1.0;"/>
        <polygon fill="none" points="804.39,145.59,783.64,149.86,797.2,133.58,804.39,145.59" style="stroke:#A80036;stroke-width:1.0;"/>
        <!--MD5=[27153803bd9d9027acb1e9c6fcb389e5]
link bank.management.system.Diposit to bank.management.system.JFrame-->
        <path codeLine="19" d="M756.4,83.44 C750.65,85.81 744.71,88.09 739,90 C710.38,99.6 698.56,89.95 673,106 C661.76,113.06 651.74,123.2 643.43,133.47 " fill="none" id="bank.management.system.Diposit-to-bank.management.system.JFrame" style="stroke:#A80036;stroke-width:1.0;"/>
        <polygon fill="none" points="648.95,137.78,631.5,149.81,637.64,129.53,648.95,137.78" style="stroke:#A80036;stroke-width:1.0;"/>
        <!--MD5=[e2270709914b78849639e97c421d64e3]
link bank.management.system.Diposit to bank.management.system.ActionListener-->
        <path codeLine="20" d="M781.8,90 C776.48,102 769.8,117.06 763.6,131.05 " fill="none" id="bank.management.system.Diposit-to-bank.management.system.ActionListener" style="stroke:#A80036;stroke-width:1.0;"/>
        <polygon fill="none" points="769.85,134.23,755.34,149.68,757.05,128.56,769.85,134.23" style="stroke:#A80036;stroke-width:1.0;"/>
        <!--MD5=[e3bc0b3eb80dc72e3eb93fc8cf394b6a]
link bank.management.system.FastCash to bank.management.system.JFrame-->
        <path codeLine="21" d="M1015.91,85.37 C1010.3,87.21 1004.57,88.83 999,90 C928.02,104.95 737.79,73.39 673,106 C660.74,112.17 650.23,122.45 641.79,133.13 " fill="none" id="bank.management.system.FastCash-to-bank.management.system.JFrame" style="stroke:#A80036;stroke-width:1.0;"/>
        <polygon fill="none" points="647.42,137.28,630.25,149.7,635.93,129.29,647.42,137.28" style="stroke:#A80036;stroke-width:1.0;"/>
        <!--MD5=[bf3f4cdaa3689459805149cfe9cc5e51]
link bank.management.system.FastCash to java.util.Date-->
        <path codeLine="22" d="M1102.17,85.09 C1108.08,87.03 1114.13,88.75 1120,90 C1179,102.56 1335.79,81.69 1391,106 C1410.42,114.55 1427.55,131.12 1439.9,145.64 " fill="none" id="bank.management.system.FastCash-to-java.util.Date" style="stroke:#A80036;stroke-width:1.0;stroke-dasharray:7.0,7.0;"/>
        <polygon fill="#A80036" points="1443.25,149.67,1440.6028,140.1836,1440.066,145.8149,1434.4346,145.278,1443.25,149.67" style="stroke:#A80036;stroke-width:1.0;"/>
        <!--MD5=[bb75bc4d7a9a0de5e1f01261567b5a7a]
link bank.management.system.FastCash to bank.management.system.ActionListener-->
        <path codeLine="23" d="M1015.84,83.84 C1010.19,85.96 1004.47,88.06 999,90 C938.98,111.3 870.29,133.62 819.49,149.74 " fill="none" id="bank.management.system.FastCash-to-bank.management.system.ActionListener" style="stroke:#A80036;stroke-width:1.0;"/>
        <polygon fill="none" points="821.45,156.47,800.27,155.82,817.23,143.12,821.45,156.47" style="stroke:#A80036;stroke-width:1.0;"/>
        <!--MD5=[03f208c5f4defa2889cf481e11678db5]
link bank.management.system.Login to bank.management.system.JFrame-->
        <path codeLine="24" d="M674.38,90 C665.85,102.55 655.05,118.46 645.19,132.97 " fill="none" id="bank.management.system.Login-to-bank.management.system.JFrame" style="stroke:#A80036;stroke-width:1.0;"/>
        <polygon fill="none" points="650.87,137.07,633.84,149.68,639.29,129.2,650.87,137.07" style="stroke:#A80036;stroke-width:1.0;"/>
        <!--MD5=[a489934c84f68e238251ec2615e32a27]
link bank.management.system.Login to bank.management.system.ActionListener-->
        <path codeLine="25" d="M701.93,90 C708.23,102.14 716.16,117.41 723.48,131.53 " fill="none" id="bank.management.system.Login-to-bank.management.system.ActionListener" style="stroke:#A80036;stroke-width:1.0;"/>
        <polygon fill="none" points="729.9,128.7,732.9,149.68,717.47,135.15,729.9,128.7" style="stroke:#A80036;stroke-width:1.0;"/>
        <!--MD5=[fa8e54b34b0c75d3844f18cbc531c302]
link bank.management.system.SignUpOne to bank.management.system.JFrame-->
        <path codeLine="26" d="M1136.82,85.86 C1131.22,87.51 1125.53,88.95 1120,90 C1071.18,99.29 717.54,83.95 673,106 C660.61,112.13 650.03,122.49 641.55,133.26 " fill="none" id="bank.management.system.SignUpOne-to-bank.management.system.JFrame" style="stroke:#A80036;stroke-width:1.0;"/>
        <polygon fill="none" points="647.14,137.48,630.01,149.95,635.63,129.52,647.14,137.48" style="stroke:#A80036;stroke-width:1.0;"/>
        <!--MD5=[d608a71b71f7c2c32ff31c67263e6421]
link bank.management.system.SignUpOne to com.toedter.calendar.JDateChooser-->
        <path codeLine="27" d="M1233.1,70 C1309.88,75.28 1456.45,87.43 1505,106 C1529.35,115.31 1553.41,132.12 1571.35,146.57 " fill="none" id="bank.management.system.SignUpOne-to-com.toedter.calendar.JDateChooser" style="stroke:#A80036;stroke-width:1.0;stroke-dasharray:7.0,7.0;"/>
        <polygon fill="#A80036" points="1575.31,149.8,1570.8632,141.0122,1571.4351,146.64,1565.8073,147.212,1575.31,149.8" style="stroke:#A80036;stroke-width:1.0;"/>
        <!--MD5=[ea2807fcc3da71e1b0f342978597ce60]
link bank.management.system.SignUpOne to bank.management.system.ActionListener-->
        <path codeLine="28" d="M1136.94,84.74 C1131.26,86.62 1125.52,88.42 1120,90 C1017.24,119.43 896.14,144.55 819.95,159.21 " fill="none" id="bank.management.system.SignUpOne-to-bank.management.system.ActionListener" style="stroke:#A80036;stroke-width:1.0;"/>
        <polygon fill="none" points="821.13,166.12,800.18,162.98,818.52,152.36,821.13,166.12" style="stroke:#A80036;stroke-width:1.0;"/>
        <!--MD5=[5d16d558a0463d5d15cd9abb149f892b]
link bank.management.system.SignUpThree to bank.management.system.JFrame-->
        <path codeLine="29" d="M581.2,90 C586.52,102 593.2,117.06 599.4,131.05 " fill="none" id="bank.management.system.SignUpThree-to-bank.management.system.JFrame" style="stroke:#A80036;stroke-width:1.0;"/>
        <polygon fill="none" points="605.95,128.56,607.66,149.68,593.15,134.23,605.95,128.56" style="stroke:#A80036;stroke-width:1.0;"/>
        <!--MD5=[7fbbeb0d8f4c3b96c84e6f7d64addad6]
link bank.management.system.SignUpThree to bank.management.system.ActionListener-->
        <path codeLine="30" d="M623.51,85.01 C643.71,92.36 664.07,100.43 673,106 C686.1,114.16 698.93,124.92 710.04,135.41 " fill="none" id="bank.management.system.SignUpThree-to-bank.management.system.ActionListener" style="stroke:#A80036;stroke-width:1.0;"/>
        <polygon fill="none" points="715.23,130.7,724.46,149.78,705.35,140.62,715.23,130.7" style="stroke:#A80036;stroke-width:1.0;"/>
        <!--MD5=[f0dfccb4f13f463073515a0d73c183ea]
link bank.management.system.SignUpTwo to bank.management.system.JFrame-->
        <path codeLine="31" d="M474.71,90 C500.7,105.06 535.01,124.93 563.54,141.45 " fill="none" id="bank.management.system.SignUpTwo-to-bank.management.system.JFrame" style="stroke:#A80036;stroke-width:1.0;"/>
        <polygon fill="none" points="567.07,135.41,580.86,151.49,560.05,147.52,567.07,135.41" style="stroke:#A80036;stroke-width:1.0;"/>
        <!--MD5=[5fd83e917735c1c0e5c2dd0302d62912]
link bank.management.system.SignUpTwo to bank.management.system.ActionListener-->
        <path codeLine="32" d="M483.28,85.32 C489.19,87.11 495.19,88.74 501,90 C576.02,106.31 602.93,74.62 673,106 C687.89,112.67 701.7,123.7 713.16,134.9 " fill="none" id="bank.management.system.SignUpTwo-to-bank.management.system.ActionListener" style="stroke:#A80036;stroke-width:1.0;"/>
        <polygon fill="none" points="718.63,130.51,727.2,149.89,708.42,140.08,718.63,130.51" style="stroke:#A80036;stroke-width:1.0;"/>
        <!--MD5=[85c7e2e6893c0da9dd23c81b3138d306]
link bank.management.system.Transection to bank.management.system.JFrame-->
        <path codeLine="33" d="M351.65,83.75 C357.83,85.86 364.06,87.99 370,90 C435.76,112.29 511.45,137.57 561.75,154.31 " fill="none" id="bank.management.system.Transection-to-bank.management.system.JFrame" style="stroke:#A80036;stroke-width:1.0;"/>
        <polygon fill="none" points="564.23,147.76,581,160.71,559.81,161.04,564.23,147.76" style="stroke:#A80036;stroke-width:1.0;"/>
        <!--MD5=[67081993fca7e30feb1799619fe71da2]
link bank.management.system.Transection to bank.management.system.ActionListener-->
        <path codeLine="34" d="M351.6,85.43 C357.73,87.24 363.96,88.83 370,90 C436.19,102.85 610.92,79.67 673,106 C688.3,112.49 702.38,123.73 713.95,135.17 " fill="none" id="bank.management.system.Transection-to-bank.management.system.ActionListener" style="stroke:#A80036;stroke-width:1.0;"/>
        <polygon fill="none" points="719.17,130.51,727.6,149.95,708.89,140.01,719.17,130.51" style="stroke:#A80036;stroke-width:1.0;"/>
        <!--MD5=[278d6af85abeb62b0bb1f5c65a614536]
link bank.management.system.Withdrawal to bank.management.system.JFrame-->
        <path codeLine="35" d="M219.61,84.54 C225.43,86.5 231.33,88.37 237,90 C350.35,122.56 485.87,149.25 560.89,162.97 " fill="none" id="bank.management.system.Withdrawal-to-bank.management.system.JFrame" style="stroke:#A80036;stroke-width:1.0;"/>
        <polygon fill="none" points="562.38,156.13,580.82,166.57,559.9,169.9,562.38,156.13" style="stroke:#A80036;stroke-width:1.0;"/>
        <!--MD5=[1b4636c45490fcc8256bf994d8a4bdc9]
link bank.management.system.Withdrawal to bank.management.system.ActionListener-->
        <path codeLine="36" d="M219.72,85.64 C225.47,87.38 231.32,88.9 237,90 C284.6,99.2 628.22,87.43 673,106 C688.35,112.37 702.44,123.58 714.01,135.03 " fill="none" id="bank.management.system.Withdrawal-to-bank.management.system.ActionListener" style="stroke:#A80036;stroke-width:1.0;"/>
        <polygon fill="none" points="719.24,130.39,727.65,149.84,708.95,139.87,719.24,130.39" style="stroke:#A80036;stroke-width:1.0;"/>
        <!--MD5=[de506a5d6ad180a873abfcacb99e23e8]
@startuml
class bank.management.system.BalanceEnquiry
class bank.management.system.Diposit
class bank.management.system.FastCash
class bank.management.system.JFrame
class bank.management.system.Login
class bank.management.system.SignUpOne
class bank.management.system.SignUpThree
class bank.management.system.SignUpTwo
class bank.management.system.Transection
class bank.management.system.Withdrawal
class bank.management.system.conn
class com.toedter.calendar.JDateChooser
class java.sql.ResultSet
class java.util.Date
interface bank.management.system.ActionListener
bank.management.system.BalanceEnquiry - -|> bank.management.system.JFrame
bank.management.system.BalanceEnquiry ..> java.sql.ResultSet
bank.management.system.BalanceEnquiry - -|> bank.management.system.ActionListener
bank.management.system.Diposit - -|> bank.management.system.JFrame
bank.management.system.Diposit - -|> bank.management.system.ActionListener
bank.management.system.FastCash - -|> bank.management.system.JFrame
bank.management.system.FastCash ..> java.util.Date
bank.management.system.FastCash - -|> bank.management.system.ActionListener
bank.management.system.Login - -|> bank.management.system.JFrame
bank.management.system.Login - -|> bank.management.system.ActionListener
bank.management.system.SignUpOne - -|> bank.management.system.JFrame
bank.management.system.SignUpOne ..> com.toedter.calendar.JDateChooser
bank.management.system.SignUpOne - -|> bank.management.system.ActionListener
bank.management.system.SignUpThree - -|> bank.management.system.JFrame
bank.management.system.SignUpThree - -|> bank.management.system.ActionListener
bank.management.system.SignUpTwo - -|> bank.management.system.JFrame
bank.management.system.SignUpTwo - -|> bank.management.system.ActionListener
bank.management.system.Transection - -|> bank.management.system.JFrame
bank.management.system.Transection - -|> bank.management.system.ActionListener
bank.management.system.Withdrawal - -|> bank.management.system.JFrame
bank.management.system.Withdrawal - -|> bank.management.system.ActionListener
@enduml

PlantUML version 1.2021.3(Mon Mar 22 22:53:19 BDT 2021)
(GPL source distribution)
Java Runtime: Java(TM) SE Runtime Environment
JVM: Java HotSpot(TM) 64-Bit Server VM
Default Encoding: UTF-8
Language: en
Country: US
-->
    </g>
</svg>
